<mxfile host="app.diagrams.net" modified="2024-03-22T18:45:01.215Z" agent="Mozilla/5.0 (Windows NT 10.0; Win64; x64) AppleWebKit/537.36 (KHTML, like Gecko) Chrome/120.0.0.0 YaBrowser/24.1.0.0 Safari/537.36" etag="SDqCih52D2uJbXihhZcc" version="24.0.7" type="device">
  <diagram name="Страница — 1" id="owFxTtWP-hq28HzQ2cJ9">
    <mxGraphModel dx="989" dy="529" grid="1" gridSize="10" guides="1" tooltips="1" connect="1" arrows="1" fold="1" page="1" pageScale="1" pageWidth="827" pageHeight="1169" math="0" shadow="0">
      <root>
        <mxCell id="0" />
        <mxCell id="1" parent="0" />
        <mxCell id="BOVWwna3kzp9p3O0SIMv-1" value="Игра в дурака" style="rounded=0;whiteSpace=wrap;html=1;verticalAlign=top;" vertex="1" parent="1">
          <mxGeometry x="310" y="100" width="240" height="560" as="geometry" />
        </mxCell>
        <mxCell id="R6rKoU8M4UuuK0rtenO6-1" value="Игрок" style="shape=umlActor;verticalLabelPosition=bottom;verticalAlign=top;html=1;outlineConnect=0;" parent="1" vertex="1">
          <mxGeometry x="130" y="290" width="30" height="60" as="geometry" />
        </mxCell>
        <mxCell id="aYsXckIHL9M5BXmPQTt1-1" value="Создать игру" style="ellipse;whiteSpace=wrap;html=1;" parent="1" vertex="1">
          <mxGeometry x="370" y="150" width="120" height="50" as="geometry" />
        </mxCell>
        <mxCell id="aYsXckIHL9M5BXmPQTt1-2" value="Покинуть игру" style="ellipse;whiteSpace=wrap;html=1;" parent="1" vertex="1">
          <mxGeometry x="370" y="210" width="120" height="50" as="geometry" />
        </mxCell>
        <mxCell id="aYsXckIHL9M5BXmPQTt1-3" value="Присоединиться к игре" style="ellipse;whiteSpace=wrap;html=1;" parent="1" vertex="1">
          <mxGeometry x="370" y="270" width="120" height="50" as="geometry" />
        </mxCell>
        <mxCell id="aYsXckIHL9M5BXmPQTt1-4" value="Выставить карту" style="ellipse;whiteSpace=wrap;html=1;" parent="1" vertex="1">
          <mxGeometry x="370" y="330" width="120" height="50" as="geometry" />
        </mxCell>
        <mxCell id="aYsXckIHL9M5BXmPQTt1-5" value="Подкинуть карту" style="ellipse;whiteSpace=wrap;html=1;" parent="1" vertex="1">
          <mxGeometry x="370" y="390" width="120" height="50" as="geometry" />
        </mxCell>
        <mxCell id="aYsXckIHL9M5BXmPQTt1-6" value="Взять карты" style="ellipse;whiteSpace=wrap;html=1;" parent="1" vertex="1">
          <mxGeometry x="370" y="450" width="120" height="50" as="geometry" />
        </mxCell>
        <mxCell id="aYsXckIHL9M5BXmPQTt1-8" value="" style="endArrow=none;html=1;rounded=0;entryX=0;entryY=0.5;entryDx=0;entryDy=0;exitX=1;exitY=0.3333333333333333;exitDx=0;exitDy=0;exitPerimeter=0;" parent="1" target="aYsXckIHL9M5BXmPQTt1-1" edge="1" source="R6rKoU8M4UuuK0rtenO6-1">
          <mxGeometry width="50" height="50" relative="1" as="geometry">
            <mxPoint x="250" y="340" as="sourcePoint" />
            <mxPoint x="300" y="190" as="targetPoint" />
          </mxGeometry>
        </mxCell>
        <mxCell id="aYsXckIHL9M5BXmPQTt1-9" value="" style="endArrow=none;html=1;rounded=0;entryX=0;entryY=0.5;entryDx=0;entryDy=0;exitX=1;exitY=0.3333333333333333;exitDx=0;exitDy=0;exitPerimeter=0;" parent="1" source="R6rKoU8M4UuuK0rtenO6-1" target="aYsXckIHL9M5BXmPQTt1-2" edge="1">
          <mxGeometry width="50" height="50" relative="1" as="geometry">
            <mxPoint x="260" y="250" as="sourcePoint" />
            <mxPoint x="380" y="185" as="targetPoint" />
          </mxGeometry>
        </mxCell>
        <mxCell id="aYsXckIHL9M5BXmPQTt1-10" value="" style="endArrow=none;html=1;rounded=0;entryX=0;entryY=0.5;entryDx=0;entryDy=0;exitX=1;exitY=0.3333333333333333;exitDx=0;exitDy=0;exitPerimeter=0;" parent="1" source="R6rKoU8M4UuuK0rtenO6-1" target="aYsXckIHL9M5BXmPQTt1-3" edge="1">
          <mxGeometry width="50" height="50" relative="1" as="geometry">
            <mxPoint x="270" y="260" as="sourcePoint" />
            <mxPoint x="390" y="195" as="targetPoint" />
          </mxGeometry>
        </mxCell>
        <mxCell id="aYsXckIHL9M5BXmPQTt1-11" value="" style="endArrow=none;html=1;rounded=0;entryX=0;entryY=0.5;entryDx=0;entryDy=0;exitX=1;exitY=0.3333333333333333;exitDx=0;exitDy=0;exitPerimeter=0;" parent="1" source="R6rKoU8M4UuuK0rtenO6-1" target="aYsXckIHL9M5BXmPQTt1-4" edge="1">
          <mxGeometry width="50" height="50" relative="1" as="geometry">
            <mxPoint x="260" y="340" as="sourcePoint" />
            <mxPoint x="400" y="205" as="targetPoint" />
          </mxGeometry>
        </mxCell>
        <mxCell id="aYsXckIHL9M5BXmPQTt1-12" value="" style="endArrow=none;html=1;rounded=0;entryX=0;entryY=0.5;entryDx=0;entryDy=0;exitX=1;exitY=0.3333333333333333;exitDx=0;exitDy=0;exitPerimeter=0;" parent="1" target="aYsXckIHL9M5BXmPQTt1-5" edge="1" source="R6rKoU8M4UuuK0rtenO6-1">
          <mxGeometry width="50" height="50" relative="1" as="geometry">
            <mxPoint x="260" y="350" as="sourcePoint" />
            <mxPoint x="410" y="215" as="targetPoint" />
          </mxGeometry>
        </mxCell>
        <mxCell id="aYsXckIHL9M5BXmPQTt1-13" value="" style="endArrow=none;html=1;rounded=0;entryX=0;entryY=0.5;entryDx=0;entryDy=0;exitX=1;exitY=0.3333333333333333;exitDx=0;exitDy=0;exitPerimeter=0;" parent="1" source="R6rKoU8M4UuuK0rtenO6-1" target="aYsXckIHL9M5BXmPQTt1-6" edge="1">
          <mxGeometry width="50" height="50" relative="1" as="geometry">
            <mxPoint x="260" y="340" as="sourcePoint" />
            <mxPoint x="420" y="225" as="targetPoint" />
          </mxGeometry>
        </mxCell>
        <mxCell id="aYsXckIHL9M5BXmPQTt1-14" value="" style="endArrow=none;html=1;rounded=0;entryX=0;entryY=0.5;entryDx=0;entryDy=0;exitX=1;exitY=0.3333333333333333;exitDx=0;exitDy=0;exitPerimeter=0;" parent="1" source="R6rKoU8M4UuuK0rtenO6-1" edge="1">
          <mxGeometry width="50" height="50" relative="1" as="geometry">
            <mxPoint x="310" y="300" as="sourcePoint" />
            <mxPoint x="310" y="605" as="targetPoint" />
          </mxGeometry>
        </mxCell>
        <mxCell id="BOVWwna3kzp9p3O0SIMv-2" value="Завершить ход" style="ellipse;whiteSpace=wrap;html=1;" vertex="1" parent="1">
          <mxGeometry x="370" y="510" width="120" height="50" as="geometry" />
        </mxCell>
        <mxCell id="BOVWwna3kzp9p3O0SIMv-3" value="Отбить карту" style="ellipse;whiteSpace=wrap;html=1;" vertex="1" parent="1">
          <mxGeometry x="370" y="570" width="120" height="50" as="geometry" />
        </mxCell>
        <mxCell id="BOVWwna3kzp9p3O0SIMv-5" value="Игрок 1" style="shape=umlActor;verticalLabelPosition=bottom;verticalAlign=top;html=1;outlineConnect=0;" vertex="1" parent="1">
          <mxGeometry x="90" y="460" width="30" height="60" as="geometry" />
        </mxCell>
        <mxCell id="BOVWwna3kzp9p3O0SIMv-6" value="Игрок 2" style="shape=umlActor;verticalLabelPosition=bottom;verticalAlign=top;html=1;outlineConnect=0;" vertex="1" parent="1">
          <mxGeometry x="170" y="460" width="30" height="60" as="geometry" />
        </mxCell>
        <mxCell id="BOVWwna3kzp9p3O0SIMv-8" value="" style="endArrow=block;html=1;rounded=0;exitX=0.5;exitY=0;exitDx=0;exitDy=0;exitPerimeter=0;endFill=0;" edge="1" parent="1" source="BOVWwna3kzp9p3O0SIMv-5">
          <mxGeometry width="50" height="50" relative="1" as="geometry">
            <mxPoint x="390" y="440" as="sourcePoint" />
            <mxPoint x="140" y="370" as="targetPoint" />
          </mxGeometry>
        </mxCell>
        <mxCell id="BOVWwna3kzp9p3O0SIMv-9" value="" style="endArrow=block;html=1;rounded=0;exitX=0.5;exitY=0;exitDx=0;exitDy=0;exitPerimeter=0;endFill=0;" edge="1" parent="1" source="BOVWwna3kzp9p3O0SIMv-6">
          <mxGeometry width="50" height="50" relative="1" as="geometry">
            <mxPoint x="115" y="470" as="sourcePoint" />
            <mxPoint x="150" y="370" as="targetPoint" />
          </mxGeometry>
        </mxCell>
      </root>
    </mxGraphModel>
  </diagram>
</mxfile>
